<svg viewBox="0 0 262.46 262.46" xmlns="http://www.w3.org/2000/svg">
	<defs>
		<path id="info" d="m19.21 19.21c-25.62 25.62-25.62 67.18 0 92.8 25.63 25.63 67.17 25.62 92.8 0 25.62-25.62 25.63-67.17 0-92.8-25.62-25.62-67.17-25.62-92.8 0m20.58 20.58c4.34-4.34 11.38-4.34 15.72 0 4.34 4.34 4.34 11.38 0 15.72-4.34 4.34-11.38 4.34-15.72 0-4.34-4.34-4.34-11.38 0-15.72m58 37.04c1.24 1.24 1.24 3.25 0 4.49l-16.46 16.47c-1.24 1.24-3.25 1.24-4.49 0l-4.49-4.49c-1.24-1.24-1.24-3.25 0-4.49l2.25-2.25-11.97-11.97-2.25 2.25c-1.24 1.24-3.25 1.24-4.49 0l-4.49-4.49c-1.24-1.24-1.24-3.25 0-4.49l11.97-11.98c1.24-1.24 3.25-1.24 4.49 0l18.71 18.71 2.25-2.25c1.24-1.24 3.25-1.24 4.49 0z" />
	</defs>
	<g style="opacity: 0.12">
		<use href="#info" fill="#fff" />
		<use href="#info" fill="#fff" transform="translate(131.23, 131.23)" />
	</g>
</svg>
