<svg viewBox="0 0 262.49 262.49" xmlns="http://www.w3.org/2000/svg">
	<defs>
		<path id="profile" d="m19.22 19.22c-25.63 25.63-25.63 67.16 0 92.8 25.63 25.63 67.16 25.63 92.8 0 25.63-25.63 25.63-67.16 0-92.8-25.63-25.63-67.16-25.63-92.8 0m17.96 17.96c9.09-9.09 23.84-9.09 32.93 0s9.09 23.84 0 32.93-23.84 9.09-32.93 0c-9.09-9.09-9.09-23.84 0-32.93m64.36 64.36c-10.98 10.98-25.8 15.85-40.17 14.65-3.11-10.14-.79-21.59 7.24-29.62.45-.45.97-.82 1.53-1.12 3.22-1.65 6.27-3.69 8.94-6.36 2.68-2.68 4.73-5.74 6.36-8.94.3-.56.67-1.09 1.12-1.53 8.03-8.03 19.48-10.35 29.62-7.24 1.2 14.37-3.67 29.19-14.65 40.17" />
	</defs>

	<g style="opacity: 0.12">
		<use href="#profile" fill="#fff" />
		<use href="#profile" fill="#fff" transform="translate(131.24, 131.24)" />
	</g>
</svg>
