<svg xmlns="http://www.w3.org/2000/svg" viewBox="0 0 225.02 225.02">
	<defs>
		<path id="tree" d="m 106.95 37.23 l -31.88 -1.98 l 5.73 -5.73 c 1.69 -1.69 2.24 -4.11 1.44 -6.33 c -0.79 -2.22 -2.75 -3.71 -5.11 -3.89 l -31.62 -2.39 l 5.4 -5.4 c 1.7 -1.7 2.24 -4.24 1.36 -6.45 c -0.86 -2.18 -2.94 -3.64 -5.3 -3.71 L 4.36 0 C 2.03 -0.08 -0.07 2.03 0 4.37 L 1.35 46.98 c 0.07 2.36 1.53 4.43 3.71 5.3 c 2.21 0.88 4.75 0.34 6.45 -1.36 l 5.4 -5.4 l 2.39 31.63 c 0.18 2.36 1.67 4.31 3.89 5.11 c 2.22 0.8 4.64 0.24 6.33 -1.45 l 5.73 -5.73 l 1.98 31.88 c 0.15 2.39 1.63 4.39 3.87 5.2 c 2.21 0.8 4.72 0.23 6.41 -1.45 l 25.6 -25.6 l 4.57 4.57 l 3.39 14.72 c 1 2.99 4.79 3.88 7.01 1.66 L 106.05 88.09 c 2.22 -2.22 1.33 -6.01 -1.66 -7.01 l -14.72 -3.39 l -4.57 -4.57 l 25.6 -25.6 c 1.69 -1.69 2.26 -4.2 1.45 -6.41 c -0.82 -2.24 -2.81 -3.72 -5.2 -3.87" />
	</defs>
	<g>
		<use href="#tree" fill="currentColor" style="fill:#ffffff;fill-opacity:0.2" />
		<use href="#tree" transform="translate(112.51, 112.51)" fill="currentColor" style="fill:#ffffff;fill-opacity:0.2" />
	</g>
</svg>
