<svg xmlns="http://www.w3.org/2000/svg" viewBox="0 0 225.02 225.02">
	<defs>
		<path id="tree" d="m106.95 37.23-31.88-1.98 5.73-5.73c1.69-1.69 2.24-4.11 1.44-6.33-.79-2.22-2.75-3.71-5.11-3.89l-31.62-2.39 5.4-5.4c1.7-1.7 2.24-4.24 1.36-6.45-.86-2.18-2.94-3.64-5.3-3.71L4.36 0C2.03-.08-.07 2.03 0 4.37L1.35 46.98c.07 2.36 1.53 4.43 3.71 5.3 2.21.88 4.75.34 6.45-1.36l5.4-5.4 2.39 31.63c.18 2.36 1.67 4.31 3.89 5.11s4.64.24 6.33-1.45l5.73-5.73 1.98 31.88c.15 2.39 1.63 4.39 3.87 5.2 2.21.8 4.72.23 6.41-1.45l25.6-25.6 4.57 4.57 3.39 14.72c1 2.99 4.79 3.88 7.01 1.66l17.97-17.97c2.22-2.22 1.33-6.01-1.66-7.01l-14.72-3.39-4.57-4.57 25.6-25.6c1.69-1.69 2.26-4.2 1.45-6.41-.82-2.24-2.81-3.72-5.2-3.87" />
	</defs>
	<g style="opacity: 0.12">
		<use href="#tree" fill="#fff" />
		<use href="#tree" fill="#fff" transform="translate(112.51, 112.51)" />
	</g>
</svg>
